<?xml version="1.0" standalone="no"?>
<!DOCTYPE svg PUBLIC "-//W3C//DTD SVG 20010904//EN"
 "http://www.w3.org/TR/2001/REC-SVG-20010904/DTD/svg10.dtd">
<svg version="1.0" xmlns="http://www.w3.org/2000/svg"
 width="512.000000pt" height="512.000000pt" viewBox="0 0 512.000000 512.000000"
 preserveAspectRatio="xMidYMid meet">
<metadata>
Created by potrace 1.14, written by Peter Selinger 2001-2017
</metadata>
<g transform="translate(0.000000,512.000000) scale(0.100000,-0.100000)"
fill="#000000" stroke="none">
<path d="M0 3460 l0 -1170 670 0 671 0 -1 -227 c-1 -200 -4 -235 -21 -287 -44
-130 -138 -221 -274 -267 -30 -10 -116 -13 -330 -14 l-290 0 0 -500 0 -500
320 1 c264 0 338 3 420 18 301 55 555 186 760 391 182 183 306 400 370 645 41
159 38 71 42 1618 l4 1462 -1171 0 -1170 0 0 -1170z"/>
<path d="M2780 3460 l0 -1170 670 0 671 0 -1 -224 c-2 -244 -10 -300 -62 -381
-32 -51 -105 -118 -155 -143 -86 -43 -107 -46 -408 -47 l-290 -1 -3 -500 -2
-500 327 1 c181 1 344 5 363 9 19 3 46 8 60 11 14 3 39 7 55 10 49 8 155 40
230 70 276 109 520 315 676 570 30 49 54 91 54 94 1 3 11 24 22 47 37 70 92
245 112 359 19 106 20 163 21 1538 l0 1427 -1170 0 -1170 0 0 -1170z"/>
</g>
</svg>
